<?xml version="1.0" standalone="no"?>
<!DOCTYPE svg PUBLIC "-//W3C//DTD SVG 20010904//EN"
 "http://www.w3.org/TR/2001/REC-SVG-20010904/DTD/svg10.dtd">
<svg version="1.0" xmlns="http://www.w3.org/2000/svg"
 width="660.000000pt" height="660.000000pt" viewBox="0 0 660.000000 660.000000"
 preserveAspectRatio="xMidYMid meet">
<metadata>
Created by potrace 1.14, written by Peter Selinger 2001-2017
</metadata>
<g transform="translate(0.000000,660.000000) scale(0.100000,-0.100000)"
fill="#000000" stroke="none">
<path d="M1518 6447 c-16 -17 -28 -39 -28 -48 0 -8 -3 -18 -6 -22 -4 -3 -8
-41 -10 -84 -3 -43 -10 -116 -17 -163 -8 -49 -10 -100 -5 -120 10 -46 8 -170
-3 -192 -10 -19 -34 -128 -53 -238 -6 -35 -18 -319 -17 -376 1 -17 5 -44 10
-61 5 -17 8 -52 7 -79 -1 -27 2 -52 8 -56 7 -5 3 -8 -8 -8 -11 0 -16 -3 -13
-7 10 -10 -50 -43 -67 -37 -8 3 -17 1 -21 -5 -4 -7 1 -9 12 -5 10 3 3 -4 -16
-16 -19 -12 -42 -22 -52 -23 -10 -1 -15 -5 -13 -9 3 -4 2 -8 -3 -8 -4 0 -26
-16 -47 -35 -22 -19 -43 -35 -47 -35 -12 0 -69 -57 -69 -70 0 -6 -4 -8 -10 -5
-5 3 -7 0 -4 -8 3 -8 -6 -28 -20 -44 -14 -17 -23 -33 -19 -36 3 -4 0 -14 -8
-23 -14 -18 -29 -175 -32 -349 -2 -77 1 -95 20 -128 13 -21 23 -43 23 -48 0
-6 19 -33 43 -59 l42 -49 -15 -243 c-16 -273 -20 -1490 -5 -1823 14 -313 13
-596 -3 -628 -7 -15 -10 -32 -6 -38 4 -6 0 -15 -7 -20 -10 -6 -11 -11 -3 -16
11 -8 27 -76 24 -103 -7 -54 2 -259 11 -277 9 -17 8 -31 -5 -64 -19 -46 -13
-74 26 -131 11 -16 16 -33 13 -38 -4 -6 -3 -9 2 -8 5 2 25 -15 44 -36 18 -22
28 -36 20 -31 -10 6 -12 4 -7 -4 5 -7 14 -10 21 -7 7 2 23 -7 36 -20 13 -14
48 -32 79 -41 30 -8 57 -18 60 -22 3 -3 10 -6 15 -7 6 0 31 -10 57 -22 31 -15
81 -26 148 -32 55 -5 108 -14 118 -19 9 -5 29 -9 43 -9 14 0 38 -11 53 -25 16
-15 31 -26 35 -25 17 2 29 -4 60 -32 43 -36 131 -85 131 -72 0 11 78 -14 98
-31 8 -6 32 -10 54 -8 22 1 46 -3 54 -10 8 -6 14 -9 14 -5 0 3 11 1 24 -4 14
-5 49 -12 78 -15 29 -3 61 -8 70 -11 9 -3 37 4 61 15 25 11 62 23 83 25 37 5
79 -8 70 -22 -3 -5 4 -9 16 -9 11 -1 32 -10 46 -20 63 -42 72 -43 246 -45 94
0 181 2 193 6 12 4 32 2 45 -5 25 -13 75 -16 101 -6 10 4 17 2 17 -3 0 -6 5
-10 11 -10 5 0 8 3 6 8 -3 4 20 6 51 5 32 -1 62 3 69 9 7 5 17 7 23 3 5 -3 10
-1 10 5 0 8 7 9 18 5 41 -18 106 -21 170 -9 37 7 83 10 103 7 22 -3 47 0 64 9
21 12 38 13 74 5 56 -12 71 -12 136 1 28 6 95 13 150 16 98 5 178 23 243 53
24 11 32 22 32 40 0 24 2 25 42 20 32 -4 58 0 103 18 33 13 90 31 128 40 37 9
82 22 100 29 17 8 77 30 132 51 55 20 118 45 140 55 139 63 175 81 175 89 0 5
22 27 50 49 27 22 46 43 42 47 -4 5 1 5 11 2 10 -4 16 -3 14 1 -3 4 16 23 42
42 68 51 84 76 105 160 21 86 21 88 14 355 -4 183 -7 204 -28 250 -13 28 -23
61 -21 73 l2 24 -22 -21 c-13 -12 -26 -21 -31 -21 -4 0 -8 -11 -8 -24 0 -14
-4 -28 -10 -31 -6 -4 -7 6 -3 27 6 34 20 58 31 56 18 -2 21 4 12 27 -7 18 -6
25 2 25 9 0 9 3 0 12 -10 10 -15 10 -22 -2 -6 -10 -10 -11 -10 -3 0 7 -6 10
-13 7 -8 -3 -20 2 -27 10 -7 9 -16 13 -21 10 -5 -3 -9 2 -9 11 0 10 6 15 13
12 8 -3 14 0 14 7 0 17 -28 16 -52 -2 -16 -11 -16 -13 -2 -9 20 7 21 3 6 -25
-9 -16 -8 -19 2 -13 8 6 10 4 4 -5 -6 -9 -4 -11 5 -5 8 5 11 4 6 -3 -8 -14
-37 -4 -34 12 1 6 -4 22 -11 35 l-14 25 -14 -28 c-8 -15 -17 -26 -20 -23 -2 3
3 17 12 30 19 29 47 45 38 21 -4 -10 0 -12 11 -8 8 3 14 11 13 17 -1 7 5 12
13 11 10 -1 16 8 17 25 0 14 -1 18 -4 9 -2 -10 -9 -18 -14 -18 -6 0 -7 5 -4
10 3 5 2 10 -4 10 -5 0 -12 -6 -14 -12 -4 -10 -6 -10 -6 -1 -1 16 15 25 50 29
22 3 29 -1 29 -14 0 -13 -2 -14 -9 -4 -6 10 -10 8 -14 -8 -3 -13 0 -23 9 -27
8 -3 12 -14 10 -28 -2 -12 -1 -26 2 -32 11 -14 82 -10 82 5 0 7 -4 11 -8 8 -5
-3 -9 1 -9 8 0 8 7 12 15 8 12 -4 11 2 -4 29 -10 19 -23 37 -29 41 -5 4 0 8
12 8 15 0 21 -5 17 -14 -3 -8 -1 -16 4 -20 5 -3 8 4 7 15 -2 23 -34 49 -52 42
-7 -3 -13 1 -13 8 0 10 -3 10 -12 1 -7 -7 -21 -12 -32 -12 -18 0 -18 1 2 19
12 10 22 24 22 30 0 7 5 9 10 6 6 -3 10 1 10 9 0 18 -16 21 -26 5 -3 -6 -17
-8 -31 -4 -18 4 -23 2 -17 -6 4 -8 3 -9 -4 -5 -7 4 -12 2 -12 -5 0 -7 -3 -9
-6 -6 -4 4 -1 14 7 23 12 15 11 16 -11 11 -14 -4 -20 -4 -13 -1 7 3 9 13 5 22
-5 15 -4 15 12 0 22 -22 44 -24 26 -3 -11 13 -10 14 4 9 10 -4 15 -13 12 -20
-7 -18 9 -18 27 0 13 13 17 12 36 -11 13 -13 25 -22 29 -18 4 3 0 10 -8 15
-13 8 -12 10 3 10 9 0 17 -6 17 -12 0 -9 3 -8 9 2 11 16 4 33 -10 25 -5 -3 -6
1 -3 9 6 15 -11 17 -34 2 -7 -4 -16 -5 -19 -2 -3 3 -11 2 -17 -3 -7 -6 -16 -4
-24 5 -11 12 -9 14 13 14 18 0 24 4 19 12 -6 10 -4 10 7 2 14 -11 54 -16 43
-5 -3 3 -11 6 -17 6 -5 0 -12 5 -14 11 -2 6 3 11 12 11 8 0 15 -4 15 -8 0 -5
8 -6 18 -3 12 4 13 3 4 -3 -10 -8 -10 -12 2 -22 13 -11 15 0 13 88 -1 56 -3
101 -4 101 -1 0 -7 -10 -14 -21 -7 -15 -8 -19 0 -15 7 5 8 1 4 -9 -3 -10 -8
-12 -12 -7 -3 6 -15 10 -26 9 -12 -1 -20 4 -20 15 0 10 -4 17 -10 15 -5 -1 -9
-7 -7 -13 1 -6 -4 -16 -11 -22 -11 -9 -13 -6 -9 18 5 34 25 45 43 24 10 -12
14 -12 22 -2 6 9 7 8 3 -4 -9 -28 8 -21 21 9 10 21 10 29 0 42 -10 12 -9 13 2
6 12 -7 13 -1 7 34 -5 31 -3 41 5 35 8 -4 9 -3 5 5 -6 9 -11 9 -24 -1 -13 -11
-14 -10 -5 7 6 11 8 26 5 34 -3 10 1 12 14 8 18 -7 18 -6 0 8 -12 9 -23 11
-30 6 -8 -7 -11 2 -11 30 0 21 3 39 7 39 8 0 12 -15 9 -37 -1 -6 4 -15 11 -19
7 -4 10 -4 6 1 -4 4 0 14 8 23 11 10 12 18 5 25 -6 6 -11 20 -11 32 0 13 3 16
8 8 4 -6 8 12 8 42 1 45 -1 52 -15 48 -11 -4 -11 -2 3 9 14 11 16 17 7 22 -9
6 -9 11 0 23 10 12 10 16 -2 24 -10 6 -10 9 -1 9 6 0 12 5 12 11 0 5 -6 7 -12
3 -10 -6 -10 -4 0 8 18 22 12 124 -6 120 -8 -1 -11 2 -7 8 3 6 11 8 16 5 7 -5
13 20 11 46 -2 16 -2 169 0 278 2 92 -1 126 -10 129 -6 2 -12 8 -12 13 0 6 4
7 10 4 12 -7 8 174 -4 194 -6 10 -5 12 2 7 8 -5 11 7 9 39 -1 25 -5 45 -9 45
-5 0 -8 5 -8 11 0 5 5 7 10 4 14 -9 12 18 -2 34 -8 9 -8 11 -2 8 8 -5 12 6 11
32 -1 28 -5 37 -14 34 -7 -3 -13 0 -13 7 0 6 -5 8 -12 4 -6 -4 -8 -3 -4 4 3 6
15 9 24 7 16 -3 18 3 17 39 0 22 -5 47 -9 55 -6 10 -5 12 2 7 7 -4 12 -2 12 5
0 6 -8 9 -20 6 -17 -4 -18 -2 -10 14 8 15 7 17 -5 13 -8 -4 -15 -2 -15 4 0 6
11 9 25 7 14 -1 25 1 25 6 0 13 -39 31 -53 23 -9 -5 -9 -4 0 6 14 15 5 43 -11
33 -6 -4 -6 0 2 9 10 13 10 17 0 22 -9 4 -9 5 2 5 36 -3 50 2 50 15 0 8 -9 18
-21 21 -20 7 -20 7 -2 22 15 13 14 13 -8 0 -25 -15 -27 -15 -32 3 -4 14 0 20
11 20 14 1 13 4 -4 19 l-22 18 21 12 c16 11 17 15 6 22 -8 5 -9 9 -3 9 17 0
24 39 10 53 -7 7 -19 23 -25 36 -11 19 -15 21 -23 10 -8 -11 -8 -10 -4 4 3 10
6 21 6 23 0 3 5 2 12 -2 8 -5 9 -2 5 9 -3 10 -2 17 2 17 13 0 71 53 71 65 0 5
-5 3 -10 -5 -8 -12 -9 -9 -8 12 1 15 6 24 11 21 5 -3 6 4 2 17 -5 15 -4 20 4
16 6 -4 11 -5 11 -3 0 2 4 28 10 58 5 30 11 65 14 79 2 14 9 38 16 55 9 25 9
31 -5 41 -15 12 -15 15 0 48 30 63 28 103 -10 170 -19 34 -43 71 -55 83 -11
12 -20 25 -20 28 0 9 -78 93 -135 145 -27 25 -73 69 -102 98 -29 29 -53 50
-53 46 0 -4 -10 2 -22 13 -38 36 -283 162 -391 202 -160 60 -346 122 -375 126
-15 1 -40 3 -55 4 -19 1 -26 5 -21 13 4 7 3 8 -4 4 -7 -4 -49 0 -95 10 -66 12
-100 14 -155 7 l-72 -9 34 28 c37 30 86 109 86 139 0 38 -68 51 -110 22 -32
-23 -164 -50 -210 -43 -19 3 -56 3 -82 -1 l-48 -5 0 33 c0 19 -9 52 -20 75
-11 23 -22 56 -26 74 -8 46 -85 110 -202 170 l-66 34 -150 -3 c-167 -4 -232
-20 -313 -77 -23 -17 -44 -30 -47 -30 -8 0 -59 -53 -100 -104 -30 -37 -48 -40
-39 -6 3 12 0 20 -7 20 -8 0 -11 9 -8 24 3 15 1 23 -6 20 -6 -2 -29 13 -51 33
-22 21 -75 65 -117 99 -42 34 -74 65 -70 69 4 5 1 5 -5 1 -12 -6 -88 38 -121
71 -7 7 -19 13 -26 13 -7 0 -24 8 -37 19 -13 10 -57 28 -96 40 -47 14 -76 29
-83 42 -6 11 -15 17 -19 14 -12 -7 -33 20 -23 30 4 5 2 5 -5 2 -6 -4 -13 -4
-15 0 -1 5 -28 21 -58 37 -30 15 -63 37 -72 48 -10 11 -18 17 -18 14 0 -4 -13
1 -29 10 -17 10 -28 21 -25 26 3 4 -3 5 -12 1 -11 -4 -15 -3 -11 4 5 7 -1 9
-15 5 -16 -4 -19 -2 -13 8 6 9 4 11 -4 5 -7 -4 -31 2 -54 14 -38 18 -145 62
-150 60 -1 0 -14 -14 -29 -32z m-393 -2555 c-3 -3 -11 0 -18 7 -9 10 -8 11 6
5 10 -3 15 -9 12 -12z m-17 -104 c-1 -54 -4 -73 -9 -54 -7 24 -1 136 7 136 2
0 3 -37 2 -82z m4322 -82 c0 -3 -4 -8 -10 -11 -5 -3 -10 -1 -10 4 0 6 5 11 10
11 6 0 10 -2 10 -4z m-4320 -27 c0 -6 -4 -7 -10 -4 -5 3 -10 11 -10 16 0 6 5
7 10 4 6 -3 10 -11 10 -16z m4320 -37 c0 -5 -7 -9 -15 -9 -8 0 -12 4 -9 9 3 4
9 8 15 8 5 0 9 -4 9 -8z m51 -35 c-10 -9 -11 -8 -5 6 3 10 9 15 12 12 3 -3 0
-11 -7 -18z m26 -16 c0 -11 -6 -19 -12 -18 -5 1 -9 -4 -7 -10 1 -7 -2 -13 -8
-13 -14 0 -13 8 8 35 21 30 21 30 19 6z m-50 -21 c1 -16 -1 -17 -12 -7 -11 10
-8 19 10 27 1 0 1 -9 2 -20z m16 -74 c3 3 13 2 23 -4 11 -6 13 -11 5 -16 -6
-4 -11 -2 -11 3 0 6 -5 11 -11 11 -5 0 -7 -6 -3 -12 5 -10 4 -10 -6 -1 -7 6
-19 9 -26 6 -8 -3 -14 -1 -14 4 0 17 13 23 25 13 7 -5 14 -7 18 -4z m-6 -1018
c-3 -8 -6 -5 -6 6 -1 11 2 17 5 13 3 -3 4 -12 1 -19z m43 -128 c0 -5 -2 -10
-4 -10 -3 0 -8 5 -11 10 -3 6 -1 10 4 10 6 0 11 -4 11 -10z m-33 -20 c1 -11
-2 -20 -7 -20 -6 0 -7 17 -1 38 3 8 7 -1 8 -18z m-86 -47 c13 -17 13 -17 -6
-3 -11 8 -22 16 -24 17 -2 2 0 3 6 3 6 0 17 -8 24 -17z m-104 -59 c8 3 11 1 8
-4 -12 -20 -54 -1 -55 23 0 5 7 1 16 -8 9 -9 23 -14 31 -11z m90 10 c-3 -3
-12 -4 -19 -1 -8 3 -5 6 6 6 11 1 17 -2 13 -5z m-29 -49 c-3 -3 -9 2 -12 12
-6 14 -5 15 5 6 7 -7 10 -15 7 -18z m36 17 c3 -5 -1 -9 -9 -9 -8 0 -12 4 -9 9
3 4 7 8 9 8 2 0 6 -4 9 -8z m-60 -23 c-2 -4 4 -10 13 -12 15 -4 15 -5 2 -6 -9
0 -22 5 -28 12 -8 10 -7 14 4 14 8 0 12 -4 9 -8z m143 -23 c0 -8 -6 -12 -15
-9 -11 5 -11 7 0 14 7 5 13 9 14 9 0 0 1 -6 1 -14z m-177 -28 c0 -5 7 -8 15
-5 8 4 17 2 19 -2 5 -7 -35 -8 -41 -1 -2 1 -7 3 -12 4 -19 2 -19 12 -1 13 11
1 20 -3 20 -9z m177 -19 c-3 -11 -1 -19 4 -19 6 0 5 -8 -1 -19 -7 -14 -7 -22
2 -27 7 -4 8 -3 4 4 -10 16 -1 15 12 -1 8 -10 5 -13 -14 -15 -13 -1 -24 3 -24
9 0 5 -4 7 -10 4 -5 -3 -10 -1 -10 4 0 6 -4 11 -10 11 -5 0 -7 -8 -4 -17 5
-14 4 -15 -4 -4 -6 8 -15 10 -22 6 -9 -6 -11 -4 -5 5 5 9 2 10 -14 5 -11 -3
-21 -2 -21 3 0 6 22 9 50 8 52 -3 61 3 35 24 -8 7 -15 9 -15 4 0 -4 -5 -3 -12
4 -9 9 -9 15 1 25 10 10 11 8 5 -8 -4 -11 -4 -17 1 -13 4 4 14 3 20 -2 9 -8
14 -6 19 5 3 9 2 14 -3 11 -5 -3 -11 0 -14 8 -4 10 0 12 15 8 13 -3 18 -11 15
-23z m-182 -9 c3 -5 1 -10 -4 -10 -6 0 -11 5 -11 10 0 6 2 10 4 10 3 0 8 -4
11 -10z m85 0 c0 -5 -5 -10 -11 -10 -5 0 -7 5 -4 10 3 6 8 10 11 10 2 0 4 -4
4 -10z m-30 -20 c0 -5 -5 -10 -11 -10 -5 0 -7 5 -4 10 3 6 8 10 11 10 2 0 4
-4 4 -10z m-44 -36 c9 3 12 1 9 -4 -9 -14 -28 -12 -51 6 -18 14 -18 15 4 4 13
-6 30 -9 38 -6z m54 -24 c0 -5 -2 -10 -4 -10 -3 0 -8 5 -11 10 -3 6 -1 10 4
10 6 0 11 -4 11 -10z m-6 -29 c-2 -3 -12 3 -22 13 -16 17 -16 18 5 5 12 -7 20
-15 17 -18z m-69 -31 c3 -5 1 -10 -4 -10 -6 0 -11 5 -11 10 0 6 2 10 4 10 3 0
8 -4 11 -10z m92 -2 c-2 -7 -1 -20 4 -29 5 -10 4 -16 -5 -16 -7 0 -12 12 -12
29 0 15 4 28 9 28 5 0 7 -6 4 -12z m48 -34 c13 -20 14 -28 4 -40 -9 -11 -9
-14 0 -14 7 0 9 -5 5 -12 -6 -9 -9 -9 -12 0 -2 7 -11 12 -19 12 -10 0 -13 6
-9 16 3 9 6 18 6 20 0 3 5 2 10 -1 16 -10 12 12 -6 29 -8 9 -11 16 -6 16 5 0
17 -12 27 -26z m25 22 c0 -3 -4 -8 -10 -11 -5 -3 -10 -1 -10 4 0 6 5 11 10 11
6 0 10 -2 10 -4z m30 -52 c0 -8 -4 -12 -10 -9 -5 3 -10 10 -10 16 0 5 5 9 10
9 6 0 10 -7 10 -16z m40 -14 c0 -5 -5 -10 -11 -10 -5 0 -7 5 -4 10 3 6 8 10
11 10 2 0 4 -4 4 -10z m-167 -35 c-3 -9 -8 -14 -10 -11 -3 3 -2 9 2 15 9 16
15 13 8 -4z m-18 -34 c3 -5 2 -12 -3 -15 -5 -3 -9 1 -9 9 0 17 3 19 12 6z
m-56 -44 c8 -10 7 -14 -2 -14 -8 0 -14 6 -14 14 0 7 1 13 2 13 2 0 8 -6 14
-13z m125 -25 c3 -5 -1 -9 -9 -9 -8 0 -12 4 -9 9 3 4 7 8 9 8 2 0 6 -4 9 -8z
m-70 -43 c24 3 25 -2 5 -20 -17 -15 -19 -19 -6 -15 9 3 17 1 17 -4 0 -6 -7
-10 -15 -10 -8 0 -15 -4 -15 -10 0 -5 -5 -10 -12 -10 -6 0 -8 3 -5 7 4 3 0 15
-10 25 -9 11 -11 18 -5 18 7 0 12 -5 12 -11 0 -5 4 -8 9 -4 5 3 8 18 5 33 -3
18 -1 22 4 14 5 -8 12 -13 16 -13z m-97 -71 c-3 -8 -6 -5 -6 6 -1 11 2 17 5
13 3 -3 4 -12 1 -19z m33 12 c0 -5 -5 -10 -11 -10 -5 0 -7 5 -4 10 3 6 8 10
11 10 2 0 4 -4 4 -10z m210 0 c0 -5 -2 -10 -4 -10 -3 0 -8 5 -11 10 -3 6 -1
10 4 10 6 0 11 -4 11 -10z m-127 -76 c-6 -17 -19 -18 -29 -2 -5 7 -3 8 6 3 10
-6 12 -4 7 8 -4 11 -2 14 8 11 8 -3 11 -12 8 -20z m66 -8 c-2 -37 1 -45 20
-51 12 -4 18 -12 14 -20 -3 -8 -9 -13 -13 -10 -5 3 -12 0 -16 -6 -4 -7 -3 -9
4 -5 6 3 13 2 17 -4 4 -6 -4 -10 -19 -10 -32 0 -44 19 -22 35 14 11 15 14 1
25 -13 11 -14 10 -10 -2 3 -8 -1 -21 -10 -28 -16 -14 -21 -35 -5 -25 6 3 10
-1 10 -10 0 -13 6 -16 26 -11 24 6 25 6 10 -9 -9 -9 -16 -21 -16 -28 0 -6 -6
-3 -13 7 -10 14 -17 15 -41 6 -23 -8 -32 -7 -46 5 -12 11 -19 12 -28 3 -9 -9
-13 -7 -18 5 -3 9 -11 14 -17 10 -6 -3 -7 -1 -3 5 4 7 2 12 -5 12 -7 0 -10 2
-7 5 10 10 38 -7 38 -23 0 -13 2 -14 13 -3 10 10 8 15 -7 27 -19 14 -19 14 3
14 12 0 20 -4 17 -9 -3 -5 2 -19 12 -31 15 -18 19 -19 19 -7 0 9 -4 14 -9 11
-4 -3 -8 -1 -8 5 0 6 10 15 21 22 20 10 21 9 16 -13 -5 -18 -2 -25 8 -25 10 0
13 6 9 19 -3 10 0 26 7 34 6 8 8 18 4 22 -4 4 -10 1 -12 -5 -3 -9 -10 -10 -24
-3 -10 6 -19 8 -19 4 0 -3 -6 -1 -13 5 -8 6 -16 9 -18 6 -3 -2 -6 7 -7 20 -1
20 3 25 21 25 21 -1 21 -1 4 -14 -10 -8 -14 -17 -8 -20 5 -3 11 -1 13 4 5 15
39 19 60 9 21 -11 44 21 27 38 -6 6 -4 10 6 10 10 0 15 -8 14 -21z m-244 -44
c-3 -3 -11 0 -18 7 -9 10 -8 11 6 5 10 -3 15 -9 12 -12z m-4055 -47 c14 -19
14 -19 -2 -6 -10 7 -18 18 -18 24 0 6 1 8 3 6 1 -2 9 -13 17 -24z m4115 -45
c3 -5 1 -10 -4 -10 -6 0 -11 5 -11 10 0 6 2 10 4 10 3 0 8 -4 11 -10z m35 -20
c0 -5 -4 -10 -10 -10 -5 0 -10 5 -10 10 0 6 5 10 10 10 6 0 10 -4 10 -10z m38
-8 c2 -7 -2 -10 -12 -6 -9 3 -16 11 -16 16 0 13 23 5 28 -10z m-73 -13 c-4 -5
-12 -9 -18 -8 -9 0 -8 2 1 6 6 2 9 10 6 15 -4 7 -2 8 5 4 6 -4 9 -12 6 -17z
m-40 2 c3 -5 2 -12 -3 -15 -5 -3 -9 1 -9 9 0 17 3 19 12 6z m91 -20 c2 -8 1
-8 -3 0 -4 8 -8 7 -13 -2 -6 -8 -1 -17 12 -23 12 -6 23 -18 25 -26 4 -11 2
-12 -5 -2 -5 7 -17 10 -28 6 -14 -4 -15 -3 -6 4 11 7 11 10 -2 15 -9 4 -16 -1
-19 -11 -4 -16 -5 -16 -6 0 0 9 4 20 9 23 6 3 10 11 10 18 0 8 -3 8 -12 -1 -7
-7 -16 -12 -22 -12 -5 0 -1 6 9 14 22 16 48 15 51 -3z m27 -111 c-3 -3 -8 0
-10 7 -2 7 -10 11 -16 9 -7 -1 -9 -1 -4 1 4 3 7 9 7 14 0 6 -5 7 -12 3 -7 -5
-8 -3 -3 6 6 10 12 7 26 -11 10 -13 15 -26 12 -29z m-53 29 c0 -4 -9 -7 -19
-6 -11 0 -18 4 -16 7 6 9 35 8 35 -1z"/>
<path d="M5400 1890 c-9 -6 -10 -10 -3 -10 6 0 15 5 18 10 8 12 4 12 -15 0z"/>
<path d="M5308 1512 c-12 -16 -11 -16 6 -2 11 8 20 15 20 14 1 0 12 -6 26 -14
16 -8 21 -8 14 -1 -18 19 -52 21 -66 3z"/>
<path d="M5505 4131 c-3 -5 -2 -12 3 -15 5 -3 9 1 9 9 0 17 -3 19 -12 6z"/>
<path d="M5483 3772 c-8 -5 -9 -13 -3 -22 8 -13 10 -13 10 2 0 9 6 19 13 21 6
3 8 6 2 6 -5 0 -15 -3 -22 -7z"/>
<path d="M5460 1752 c0 -7 -4 -11 -9 -8 -5 3 -15 -2 -22 -12 -13 -15 -12 -16
3 -4 11 9 18 10 23 2 3 -6 11 -7 17 -4 6 4 14 0 19 -7 5 -8 9 -9 9 -4 0 13
-20 43 -20 30 0 -5 -5 -3 -10 5 -7 11 -10 11 -10 2z"/>
<path d="M5505 1751 c-3 -5 -2 -12 3 -15 5 -3 9 1 9 9 0 17 -3 19 -12 6z"/>
</g>
</svg>
